<svg xmlns="http://www.w3.org/2000/svg" viewBox="0 0 11.28 20.86"><defs><style>.cls-1{fill:#fff;}</style></defs><title>facebook1</title><g id="Capa_2" data-name="Capa 2"><g id="V2"><path class="cls-1" d="M10.85,0H8.15a4.75,4.75,0,0,0-5,5.13V7.5H.42A.42.42,0,0,0,0,7.93v3.43a.42.42,0,0,0,.42.42H3.14v8.65a.43.43,0,0,0,.43.43H7.12a.42.42,0,0,0,.42-.43V11.78h3.18a.42.42,0,0,0,.43-.42V7.93a.41.41,0,0,0-.12-.3.44.44,0,0,0-.31-.13H7.54v-2C7.54,4.53,7.77,4,9,4h1.82a.43.43,0,0,0,.43-.43V.43A.43.43,0,0,0,10.85,0Z"/></g></g></svg>