<svg xmlns="http://www.w3.org/2000/svg" viewBox="0 0 21.5 21.51"><defs><style>.cls-1{fill:#fff;}</style></defs><title>instagram1</title><g id="Capa_2" data-name="Capa 2"><g id="V2"><path class="cls-1" d="M4.16,21.51H17.35a4.16,4.16,0,0,0,4.15-4.16V4.16A4.15,4.15,0,0,0,17.35,0H4.16A4.16,4.16,0,0,0,0,4.16V17.35A4.16,4.16,0,0,0,4.16,21.51Zm14.38-19H19V6.12H15.38V2.49ZM7.68,8.54a3.78,3.78,0,0,1,6.14,0,3.74,3.74,0,0,1,.72,2.2,3.79,3.79,0,1,1-7.57,0A3.85,3.85,0,0,1,7.68,8.54Zm-5.59,0H5.3a5.87,5.87,0,0,0,5.45,8.08,5.88,5.88,0,0,0,5.88-5.88,5.75,5.75,0,0,0-.43-2.2h3.21v8.8a2.06,2.06,0,0,1-2.06,2.06H4.15a2.06,2.06,0,0,1-2.06-2.06Z"/></g></g></svg>