<svg xmlns="http://www.w3.org/2000/svg" viewBox="0 0 27.26 31.85"><defs><style>.cls-1{fill:#00a5e6;}.cls-2{fill:#71c386;}.cls-3{fill:#fff;}</style></defs><title>mapIcon</title><g id="Capa_2" data-name="Capa 2"><g id="Diseño"><path class="cls-1" d="M18.65,3.2h0A10.92,10.92,0,0,0,3.2,3.2h0C-.64,7-1.08,14.28,2.19,18.63l8.73,12.62,8.74-12.62C22.93,14.28,22.49,7,18.65,3.2ZM11,14.42a3.61,3.61,0,1,1,3.61-3.6A3.61,3.61,0,0,1,11,14.42Z"/><path class="cls-2" d="M20.05,17.43a7.21,7.21,0,1,1-7.22,7.21A7.21,7.21,0,0,1,20.05,17.43Z"/><path class="cls-3" d="M23.65,24h-3V21a.6.6,0,0,0-.6-.6.6.6,0,0,0-.6.6v3h-3a.6.6,0,1,0,0,1.2h3v3a.6.6,0,0,0,.6.6.6.6,0,0,0,.6-.6v-3h3a.6.6,0,0,0,0-1.2Z"/></g></g></svg>