<svg xmlns="http://www.w3.org/2000/svg" viewBox="0 0 21.93 17.82"><defs><style>.cls-1{fill:#fff;}</style></defs><title>twitter1</title><g id="Capa_2" data-name="Capa 2"><g id="V2"><path class="cls-1" d="M21.93,2.11a8.88,8.88,0,0,1-2.58.71,4.54,4.54,0,0,0,2-2.49,9.17,9.17,0,0,1-2.86,1.09A4.5,4.5,0,0,0,10.69,4.5a4.25,4.25,0,0,0,.11,1A12.71,12.71,0,0,1,1.53.82a4.51,4.51,0,0,0,1.39,6,4.55,4.55,0,0,1-2-.57v.06a4.5,4.5,0,0,0,3.61,4.41,4.2,4.2,0,0,1-1.18.16,4.63,4.63,0,0,1-.85-.08,4.48,4.48,0,0,0,4.2,3.12,9,9,0,0,1-5.59,1.93A9.45,9.45,0,0,1,0,15.79a12.72,12.72,0,0,0,6.9,2A12.72,12.72,0,0,0,19.7,5l0-.59A8.86,8.86,0,0,0,21.93,2.11Z"/></g></g></svg>