<svg xmlns="http://www.w3.org/2000/svg" viewBox="0 0 42.32 50.32"><defs><style>.cls-1{fill:#fff;}</style></defs><title>utnlogo1</title><g id="Capa_2" data-name="Capa 2"><g id="V2"><path class="cls-1" d="M25.69,21.26C42.75,16.27,42.14,0,42.14,0h-8a11.32,11.32,0,0,1-2.35,7.68A16.5,16.5,0,0,1,25,12.79V.12H17.3V12.79a16.5,16.5,0,0,1-6.73-5.11A11.32,11.32,0,0,1,8.22,0h-8s-.6,16.27,16.45,21.26H0v7.8H16.63C-.42,34.06.18,50.32.18,50.32h8a11.33,11.33,0,0,1,2.35-7.68,16.5,16.5,0,0,1,6.73-5.11V50.2H25V37.53a16.5,16.5,0,0,1,6.73,5.11,11.33,11.33,0,0,1,2.35,7.68h8s.61-16.26-16.45-21.26H42.32v-7.8Z"/></g></g></svg>