<svg xmlns="http://www.w3.org/2000/svg" viewBox="0 0 62.31 55.31"><defs><style>.cls-1{opacity:0.5;}.cls-2{fill:#5ad7ff;}</style></defs><title>auditoriaDeTanques</title><g id="Capa_2" data-name="Capa 2"><g id="Diseño"><g class="cls-1"><path class="cls-2" d="M59.45,53.41V14.94a6.69,6.69,0,0,0-5.73-6.61V2.86A2.78,2.78,0,0,0,50.86,0H17.8a2.78,2.78,0,0,0-2.86,2.86V19.74a13.09,13.09,0,0,0-12.08,13V53.41H0v1.9H62.31v-1.9ZM27,53.41H4.77V49H27Zm0-6.36H4.77v-7H24.16V38.15H4.77V32.74A11.16,11.16,0,0,1,15.89,21.62,11.14,11.14,0,0,1,27,32.74Zm3.82,6.36H28.93V32.74a13.06,13.06,0,0,0-12.08-13V2.87a.87.87,0,0,1,.95-1H35.59a.88.88,0,0,1,1,1V8.33a6.73,6.73,0,0,0-3.77,1.89,6.65,6.65,0,0,0-1.95,4.72Zm11.44,0H32.74V49h9.54Zm0-6.36H38.47V28.93H36.56V47.05H32.74V14.94a4.77,4.77,0,0,1,9.54,0Zm3.82,6.36H44.19V14.94a6.69,6.69,0,0,0-5.72-6.61V2.86a3.11,3.11,0,0,0-.14-.95H50.86a1.47,1.47,0,0,1,.53.13.79.79,0,0,1,.43.82V8.33a6.73,6.73,0,0,0-3.77,1.89,6.65,6.65,0,0,0-1.95,4.72Zm11.44,0H48V49h9.54Zm0-6.36H53.72V28.93h-1.9V47.05H48V14.94a4.77,4.77,0,1,1,9.54,0Z"/><rect class="cls-2" x="36.56" y="22.57" width="1.91" height="3.81"/><rect class="cls-2" x="51.82" y="22.57" width="1.91" height="3.81"/><rect class="cls-2" x="7.63" y="42.6" width="3.82" height="1.91"/><rect class="cls-2" x="13.99" y="42.6" width="3.82" height="1.91"/></g></g></g></svg>