<svg xmlns="http://www.w3.org/2000/svg" viewBox="0 0 60.46 55.9"><defs><style>.cls-1{opacity:0.5;}.cls-2{fill:#5ad7ff;}</style></defs><title>capacitaciones</title><g id="Capa_2" data-name="Capa 2"><g id="Diseño"><g class="cls-1"><path class="cls-2" d="M39.27,22h-.13a.91.91,0,0,1-.78-1,8.06,8.06,0,0,0-4.25-8.28A.91.91,0,1,1,35,11.1a9.9,9.9,0,0,1,5.3,8.78,10.24,10.24,0,0,1-.09,1.36A.93.93,0,0,1,39.27,22Z"/><path class="cls-2" d="M21.4,22a.91.91,0,0,1-.9-.79,10.24,10.24,0,0,1-.09-1.36,9.93,9.93,0,0,1,5.22-8.74.91.91,0,0,1,.86,1.6A8.07,8.07,0,0,0,22.3,21a.91.91,0,0,1-.78,1Z"/><path class="cls-2" d="M44.18,34.36a.91.91,0,0,1-.91-.91V22.7a.69.69,0,0,0-.72-.67H17.91a.69.69,0,0,0-.72.67V33.45a.91.91,0,0,1-.91.91h0a.91.91,0,0,1-.91-.91V22.7a2.51,2.51,0,0,1,2.54-2.49H42.55a2.51,2.51,0,0,1,2.54,2.49V33.45A.91.91,0,0,1,44.18,34.36Z"/><path class="cls-2" d="M44.18,27.59H16.28a.91.91,0,0,1,0-1.82h27.9a.91.91,0,1,1,0,1.82Z"/><path class="cls-2" d="M59.55,55.9H.91a.91.91,0,0,1,0-1.82H59.55a.91.91,0,0,1,0,1.82Z"/><path class="cls-2" d="M19.06,55.43a.85.85,0,0,1-.23,0,.91.91,0,0,1-.65-1.11,6.92,6.92,0,0,0,.24-1.81A7,7,0,0,0,14.11,46a.91.91,0,0,1-.49-1.19.9.9,0,0,1,1.19-.48,8.82,8.82,0,0,1,5.13,10.42A.92.92,0,0,1,19.06,55.43Z"/><path class="cls-2" d="M3.78,55.51a.89.89,0,0,1-.87-.67,8.51,8.51,0,0,1-.32-2.36,8.83,8.83,0,0,1,5.25-8.07.91.91,0,0,1,.74,1.66,7,7,0,0,0-3.92,8.29A.92.92,0,0,1,4,55.48Z"/><path class="cls-2" d="M11.41,46.64a5.78,5.78,0,1,1,5.78-5.77A5.78,5.78,0,0,1,11.41,46.64Zm0-9.73a4,4,0,1,0,4,4A4,4,0,0,0,11.41,36.91Z"/><path class="cls-2" d="M38,55.43a.91.91,0,0,1-.88-1.14,6.92,6.92,0,0,0,.24-1.81A7,7,0,0,0,33,46a.91.91,0,1,1,.7-1.67,8.82,8.82,0,0,1,5.13,10.42A.92.92,0,0,1,38,55.43Z"/><path class="cls-2" d="M22.7,55.51a.89.89,0,0,1-.87-.67,8.51,8.51,0,0,1-.32-2.36,8.83,8.83,0,0,1,5.25-8.07.91.91,0,1,1,.74,1.66,7,7,0,0,0-3.92,8.29A.92.92,0,0,1,23,55.48,1.07,1.07,0,0,1,22.7,55.51Z"/><path class="cls-2" d="M30.33,46.64a5.78,5.78,0,1,1,5.78-5.77A5.79,5.79,0,0,1,30.33,46.64Zm0-9.73a4,4,0,1,0,4,4A4,4,0,0,0,30.33,36.91Z"/><path class="cls-2" d="M56.9,55.43l-.23,0A.91.91,0,0,1,56,54.29a6.92,6.92,0,0,0,.24-1.81A7,7,0,0,0,52,46a.91.91,0,1,1,.7-1.67,8.82,8.82,0,0,1,5.13,10.42A.92.92,0,0,1,56.9,55.43Z"/><path class="cls-2" d="M41.62,55.51a.9.9,0,0,1-.87-.67,8.83,8.83,0,0,1,4.93-10.43.91.91,0,1,1,.74,1.66,7,7,0,0,0-3.92,8.29.91.91,0,0,1-.63,1.12A1,1,0,0,1,41.62,55.51Z"/><path class="cls-2" d="M49.25,46.64A5.78,5.78,0,1,1,55,40.87,5.78,5.78,0,0,1,49.25,46.64Zm0-9.73a4,4,0,1,0,4,4A4,4,0,0,0,49.25,36.91Z"/><path class="cls-2" d="M30.33,14a7,7,0,1,1,7-7A7,7,0,0,1,30.33,14Zm0-12.13A5.16,5.16,0,1,0,35.49,7,5.16,5.16,0,0,0,30.33,1.82Z"/></g></g></g></svg>