<svg xmlns="http://www.w3.org/2000/svg" viewBox="0 0 55.97 55.97"><defs><style>.cls-1{fill:#5ad7ff;}</style></defs><title>ingenieriaAmbiental</title><g id="Capa_2" data-name="Capa 2"><g id="Diseño"><path class="cls-1" d="M28.47,42.82a.86.86,0,0,0,.85-.86V35h3.5A12.64,12.64,0,0,0,45.45,22.32V18a.85.85,0,0,0-.86-.86H40.24a12.66,12.66,0,0,0-11.53,7.47l-.24.54-.25-.54a12.66,12.66,0,0,0-11.53-7.47H12.34a.86.86,0,0,0-.86.86v4.35A12.64,12.64,0,0,0,24.11,35h3.5v7A.86.86,0,0,0,28.47,42.82ZM16.82,22.44a.85.85,0,0,0-.26.61.83.83,0,0,0,.26.61l9.57,9.58H24.11A10.93,10.93,0,0,1,13.2,22.32V18.83h3.49A10.93,10.93,0,0,1,27.61,29.74V32L18,22.44A.9.9,0,0,0,16.82,22.44Zm23.42-3.61h3.49v3.49A10.93,10.93,0,0,1,32.82,33.24H30.54l6.5-6.5a.88.88,0,0,0,0-1.22.92.92,0,0,0-1.22,0L29.32,32V29.74A10.93,10.93,0,0,1,40.24,18.83Z"/><path class="cls-1" d="M55.11,27.13a.86.86,0,0,0-.86.86A26.27,26.27,0,0,1,10.71,47.77l-.54-.47h4.31a.86.86,0,1,0,0-1.71H8.4a.86.86,0,0,0-.86.86v6.07a.86.86,0,1,0,1.72,0V48.79l.44.38A28,28,0,0,0,56,28,.85.85,0,0,0,55.11,27.13Z"/><path class="cls-1" d="M28,1.72A26.17,26.17,0,0,1,45.77,8.65l.5.47H42.06a.86.86,0,1,0,0,1.71h6.07A.85.85,0,0,0,49,10V3.9a.86.86,0,1,0-1.72,0V7.7l-.44-.41A28,28,0,0,0,0,28a.85.85,0,0,0,.86.85A.86.86,0,0,0,1.72,28,26.29,26.29,0,0,1,28,1.72Z"/></g></g></svg>