<svg xmlns="http://www.w3.org/2000/svg" viewBox="0 0 18.68 18.68"><defs><style>.cls-1{fill:#fff;}</style></defs><title>comprobantes</title><g id="Capa_2" data-name="Capa 2"><g id="Diseño"><path class="cls-1" d="M9.34,0a9.34,9.34,0,1,0,9.34,9.34A9.34,9.34,0,0,0,9.34,0ZM12,13a3,3,0,0,1-1.56,1,.45.45,0,0,0-.38.5c0,.28,0,.55,0,.84a.33.33,0,0,1-.37.37,6.61,6.61,0,0,1-.89,0,.35.35,0,0,1-.38-.4v-.6c0-.44,0-.47-.45-.54a5.4,5.4,0,0,1-1.58-.45C6,13.55,6,13.45,6.1,13s.17-.62.26-.92.2-.39.53-.22a5.25,5.25,0,0,0,1.76.52,2.11,2.11,0,0,0,1.16-.16A.89.89,0,0,0,10,10.7a2.26,2.26,0,0,0-.65-.38,15.41,15.41,0,0,1-1.8-.81A2.53,2.53,0,0,1,6.13,7.07a2.68,2.68,0,0,1,2-2.48c.47-.18.48-.17.48-.67V3.41C8.59,3,8.65,3,9,3h.35c.81,0,.81,0,.81.81,0,.57,0,.57.56.65A5.19,5.19,0,0,1,12,4.79a.36.36,0,0,1,.23.49c-.09.34-.19.7-.31,1s-.21.37-.52.23a3.85,3.85,0,0,0-2-.39,1.61,1.61,0,0,0-.53.1.75.75,0,0,0-.19,1.33,3.67,3.67,0,0,0,.86.49,13.75,13.75,0,0,1,1.57.71A2.8,2.8,0,0,1,12,13Z"/></g></g></svg>