<svg xmlns="http://www.w3.org/2000/svg" viewBox="0 0 16.38 18.72"><defs><style>.cls-1{fill:#fff;}</style></defs><title>informacion</title><g id="Capa_2" data-name="Capa 2"><g id="Diseño"><g id="_3" data-name="3"><path class="cls-1" d="M12.29,0l-7,0A2.45,2.45,0,0,0,2.92,2.34l-.67,0A2.34,2.34,0,0,0,0,4.68v11.7a2.44,2.44,0,0,0,2.34,2.34h8.78a2.44,2.44,0,0,0,2.33-2.34H14A2.44,2.44,0,0,0,16.38,14V4.69ZM11.12,17.55H2.34a1.23,1.23,0,0,1-1.17-1.17V4.68c0-.87.71-1.17,1.75-1.17V14a2.45,2.45,0,0,0,2.34,2.34h7A1.11,1.11,0,0,1,11.12,17.55Zm1.17-5.26H7a.59.59,0,1,1,0-1.17h5.27a.59.59,0,0,1,0,1.17Zm0-2.92H7A.59.59,0,1,1,7,8.2h5.27a.59.59,0,0,1,0,1.17Zm1.16-4.69a1.2,1.2,0,0,1-1.16-1.17V1.19h0l2.92,3.49Z"/></g></g></g></svg>