<svg xmlns="http://www.w3.org/2000/svg" viewBox="0 0 18.84 20.45"><defs><style>.cls-1{fill:#fff;}</style></defs><title>muestras</title><g id="Capa_2" data-name="Capa 2"><g id="Diseño"><path class="cls-1" d="M18.54,16.84,13.18,6.91V1a1,1,0,0,0-1-1H6.68a1,1,0,0,0-1,1V6.91L.29,16.84a2.44,2.44,0,0,0,2.15,3.61h14a2.44,2.44,0,0,0,2.15-3.61ZM10.3,12.69a.87.87,0,1,1-.87.87A.86.86,0,0,1,10.3,12.69ZM7.86,7.46A.87.87,0,1,1,7,8.33.87.87,0,0,1,7.86,7.46Zm0,3A1.41,1.41,0,1,1,6.45,11.9,1.41,1.41,0,0,1,7.86,10.49ZM16,17.73a1,1,0,0,1-.87.49H3.74a1,1,0,0,1-.86-.49,1,1,0,0,1,0-1l1.37-2.45a1,1,0,0,1,1-.51c1.82.17,3.85,1.72,5.67,1.65a6.17,6.17,0,0,0,2.74-.87A1,1,0,0,1,15,15l1,1.78A1,1,0,0,1,16,17.73Z"/></g></g></svg>