<svg xmlns="http://www.w3.org/2000/svg" viewBox="0 0 17.18 23.48"><defs><style>.cls-1{fill:#fff;}</style></defs><title>presupuestos</title><g id="Capa_2" data-name="Capa 2"><g id="Diseño"><path class="cls-1" d="M10.88,2.29a2.29,2.29,0,0,0-4.58,0H4V4.58h9.16V2.29Z"/><path class="cls-1" d="M14.89,4.58V6.3H2.29V4.58H0v18.9H17.18V4.58Zm-4.58,14.6H9.45v1.44H7.73V19.18H6.87a5.88,5.88,0,0,1-2-.34l.57-1.62a4.35,4.35,0,0,0,1.43.25h.86V15.75H6.87a2.58,2.58,0,0,1,0-5.16h.86V9.16H9.45v1.43h.86a5.93,5.93,0,0,1,2,.35l-.57,1.62a4.1,4.1,0,0,0-1.43-.25H9.45V14h.86a2.58,2.58,0,0,1,0,5.15Z"/></g></g></svg>